<?xml version="1.0" encoding="UTF-8"?>
<svg id="Layer_1" xmlns="http://www.w3.org/2000/svg" version="1.1" viewBox="0 0 455.36 145.86">
  <!-- Generator: Adobe Illustrator 29.7.1, SVG Export Plug-In . SVG Version: 2.1.1 Build 8)  -->
  <defs>
    <style>
      .st0 {
        fill: #fff;
      }
    </style>
  </defs>
  <path class="st0" d="M211.42,41.78c-4.44-2.48-9.34-3.72-14.68-3.72s-10.15,1.24-14.6,3.72c-4.44,2.48-7.96,5.93-10.55,10.34-2.59,4.42-3.88,9.4-3.88,14.96s1.29,10.56,3.88,15.01c2.59,4.44,6.1,7.91,10.55,10.39,4.44,2.48,9.31,3.72,14.6,3.72s10.23-1.24,14.68-3.72c4.44-2.48,7.94-5.94,10.51-10.39,2.56-4.44,3.84-9.44,3.84-15.01s-1.28-10.55-3.84-14.96c-2.56-4.42-6.07-7.86-10.51-10.34ZM213.71,78.17c-1.66,3.19-3.97,5.64-6.91,7.36-2.94,1.72-6.3,2.58-10.06,2.58s-7.11-.86-10.06-2.58-5.25-4.17-6.91-7.36c-1.66-3.19-2.49-6.88-2.49-11.08s.83-7.88,2.49-11.04c1.66-3.16,3.97-5.59,6.91-7.28,2.94-1.69,6.3-2.54,10.06-2.54s7.11.85,10.06,2.54c2.94,1.69,5.25,4.12,6.91,7.28,1.66,3.16,2.49,6.84,2.49,11.04s-.83,7.89-2.49,11.08Z"/>
  <path class="st0" d="M270.7,52.74c-3.24-1.93-6.83-2.9-10.75-2.9-3.43,0-6.52.71-9.24,2.13-2.73,1.42-4.88,3.16-6.46,5.23v-6.62h-9.32v66.48h9.32v-27.97c1.69,2.07,3.87,3.8,6.54,5.19,2.67,1.39,5.72,2.08,9.16,2.08,3.93,0,7.51-.99,10.75-2.98,3.24-1.99,5.79-4.77,7.65-8.34,1.85-3.57,2.78-7.62,2.78-12.14s-.93-8.53-2.78-12.02c-1.85-3.49-4.4-6.2-7.65-8.14ZM269.72,81.07c-1.28,2.34-2.97,4.13-5.07,5.36-2.1,1.23-4.35,1.84-6.75,1.84s-4.57-.6-6.66-1.8c-2.1-1.2-3.79-2.96-5.07-5.27-1.28-2.32-1.92-5.03-1.92-8.14s.64-5.81,1.92-8.1c1.28-2.29,2.97-4.03,5.07-5.23,2.1-1.2,4.32-1.8,6.66-1.8s4.65.59,6.75,1.76c2.1,1.17,3.79,2.89,5.07,5.15,1.28,2.26,1.92,4.95,1.92,8.05s-.64,5.83-1.92,8.18Z"/>
  <path class="st0" d="M295.11,32.66c-1.69,0-3.11.57-4.25,1.72-1.14,1.15-1.72,2.56-1.72,4.25s.57,3.11,1.72,4.25c1.15,1.14,2.56,1.72,4.25,1.72s3.03-.57,4.17-1.72,1.72-2.56,1.72-4.25-.57-3.11-1.72-4.25-2.53-1.72-4.17-1.72Z"/>
  <rect class="st0" x="290.37" y="50.57" width="9.32" height="45.06"/>
  <path class="st0" d="M344.22,52.04c-2.81-1.47-5.98-2.21-9.53-2.21-2.67,0-5.19.52-7.56,1.55-2.37,1.04-4.32,2.48-5.85,4.33v-5.15h-9.32v45.06h9.32v-25.19c0-4.03,1.02-7.13,3.07-9.28,2.04-2.15,4.81-3.23,8.3-3.23s6.24,1.08,8.26,3.23c2.02,2.15,3.03,5.25,3.03,9.28v25.19h9.24v-26.58c0-4.09-.79-7.58-2.37-10.47-1.58-2.89-3.78-5.07-6.58-6.54Z"/>
  <path class="st0" d="M395.78,52.61c-3.33-1.85-7.11-2.78-11.37-2.78s-8.33.95-11.73,2.86c-3.41,1.91-6.05,4.62-7.93,8.14-1.88,3.52-2.82,7.59-2.82,12.23s.97,8.71,2.9,12.23c1.93,3.52,4.61,6.24,8.01,8.18,3.41,1.94,7.26,2.9,11.57,2.9,5.29,0,9.72-1.32,13.29-3.97,3.57-2.64,6.04-6.04,7.4-10.18h-10.06c-2.07,4.2-5.62,6.3-10.63,6.3-3.49,0-6.43-1.09-8.83-3.27-2.4-2.18-3.73-5.07-4.01-8.67h34.43c.22-1.36.33-2.89.33-4.58,0-4.36-.93-8.22-2.78-11.57-1.85-3.35-4.44-5.96-7.77-7.81ZM371.65,69.05c.44-3.49,1.8-6.26,4.09-8.3s5.04-3.07,8.26-3.07c3.54,0,6.51,1.04,8.91,3.11,2.4,2.07,3.62,4.82,3.68,8.26h-24.94Z"/>
  <path class="st0" d="M437.32,58.18v-7.61h-10.96v-11.2h-9.4v11.2h-5.32v7.61h5.32v24.94c0,4.42,1.12,7.61,3.35,9.57,2.23,1.96,5.45,2.94,9.65,2.94h7.36v-7.77h-5.72c-1.91,0-3.26-.37-4.05-1.1-.79-.74-1.19-1.95-1.19-3.64v-24.94h10.96Z"/>
  <path class="st0" d="M137.26,64.31c-1.34-11.28-6.18-20.95-13.15-28.32v-.2c0-14.2-11.51-25.71-25.71-25.71-9,0-16.92,4.62-21.5,11.62-1.38,2.08-2.44,4.37-3.16,6.8h-14.92c-2.04-6.95-8.45-12.04-16.07-12.04-9.25,0-16.75,7.5-16.75,16.75s7.5,16.75,16.75,16.75c7.77,0,14.28-5.29,16.18-12.46h13.81c.35,5.3,2.31,10.16,5.39,14.1l-8.12,6.97h0s-7.35,6.31-7.35,6.31c-3.56-3.87-8.27-6.65-13.6-7.77-1.71-.36-3.49-.55-5.31-.55-1.18,0-2.33.08-3.47.24-12.57,1.69-22.25,12.45-22.25,25.48,0,14.2,11.51,25.71,25.72,25.71,3.58,0,6.99-.73,10.09-2.06.71.68,1.45,1.34,2.21,1.99l.2,27.86,23.11-16.98c12.85,2.26,25.21-.67,35.2-7.06,1.01.15,2.05.23,3.11.23,11.72,0,21.22-9.5,21.22-21.22,0-3.59-.89-6.97-2.47-9.93,1.18-5.24,1.51-10.79.83-16.51ZM125.96,54.15c2.54,6.31,3.46,12.64,3.04,18.66-3.27-2.07-7.15-3.27-11.32-3.27-.05,0-.09,0-.14,0l-2.62-6.42h0l-2.39-5.86c4.01-2.64,7.23-6.38,9.24-10.78,1.67,2.37,3.08,4.94,4.18,7.67ZM98.4,20.08c4.91,0,9.3,2.26,12.18,5.8,2.21,2.71,3.53,6.16,3.53,9.91,0,.8-.06,1.59-.18,2.36-1.14,7.54-7.67,13.35-15.53,13.35-8.67,0-15.72-7.05-15.72-15.71,0-2.4.54-4.68,1.51-6.71,1.88-3.96,5.36-7.01,9.61-8.31,1.45-.45,3-.69,4.6-.69ZM46.87,97.68c-1,.2-2.05.31-3.11.31-8.67,0-15.72-7.05-15.72-15.71,0-6.86,4.42-12.71,10.56-14.85,1.61-.56,3.35-.87,5.16-.87,1.15,0,2.27.12,3.34.36,7.06,1.54,12.37,7.84,12.37,15.36,0,4.51-1.91,8.58-4.97,11.44-2.09,1.98-4.71,3.37-7.63,3.96ZM77.63,109.69l-13.09,9.57-.21-15.72c-1.04-.77-2.06-1.59-3.05-2.45,5.04-4.69,8.19-11.38,8.19-18.81,0-3.44-.7-6.72-1.92-9.72l8.29-7.12h0l9.05-7.77c3.93,2.43,8.55,3.83,13.51,3.83,2.02,0,3.98-.24,5.87-.68l2.32,5.7h0l2.06,5.06c-7.19,3.4-12.18,10.69-12.18,19.17,0,6.81,3.21,12.87,8.19,16.74-7.96,3.56-17.28,4.64-27.03,2.2ZM114.32,101.45c-4.54-1.43-7.85-5.68-7.85-10.7,0-6.18,5.03-11.21,11.21-11.21,3.64,0,6.88,1.74,8.93,4.44,1.44,1.88,2.29,4.23,2.29,6.77,0,.39-.02.78-.06,1.16,0,.09-.03.17-.04.26-.04.29-.08.59-.14.87-.02.08-.04.15-.06.23-.07.29-.14.59-.23.87-.02.05-.04.1-.06.15-.1.31-.21.61-.34.9-.01.03-.03.05-.04.08-.14.32-.29.63-.46.93,0,0,0,.01-.01.02-.54.96-1.22,1.84-2.01,2.6-.76.73-1.61,1.35-2.55,1.85-.01,0-.03.01-.04.02-.3.16-.6.3-.91.43-.05.02-.1.03-.15.05-.28.11-.56.22-.86.31-.1.03-.2.05-.3.08-.25.07-.49.14-.75.19-.17.03-.35.05-.52.08-.19.03-.38.07-.57.08-.37.04-.75.06-1.13.06-1.17,0-2.3-.18-3.36-.52Z"/>
</svg>